<?xml version="1.0" standalone="no"?>
<!DOCTYPE svg PUBLIC "-//W3C//DTD SVG 20010904//EN"
 "http://www.w3.org/TR/2001/REC-SVG-20010904/DTD/svg10.dtd">
<svg version="1.0" xmlns="http://www.w3.org/2000/svg"
 width="1920.000000pt" height="1920.000000pt" viewBox="0 0 1920.000000 1920.000000"
 preserveAspectRatio="xMidYMid meet">
<metadata>
Created by potrace 1.11, written by Peter Selinger 2001-2013
</metadata>
<g transform="translate(0.000000,1920.000000) scale(0.100000,-0.100000)"
fill="#000000" stroke="none">
<path d="M0 9600 l0 -9600 9600 0 9600 0 0 9600 0 9600 -9600 0 -9600 0 0
-9600z m9015 7360 c136 -10 191 -16 555 -60 879 -105 1700 -324 2510 -672 226
-97 670 -315 880 -433 1177 -658 2243 -1594 3045 -2670 937 -1259 1520 -2691
1626 -3995 25 -308 14 -728 -27 -1040 -90 -688 -349 -1372 -767 -2025 -408
-637 -1006 -1281 -1677 -1807 -1191 -933 -2656 -1559 -4260 -1822 -1172 -193
-2349 -193 -3518 -1 -985 162 -1897 439 -2752 834 -517 240 -1026 558 -1440
900 -159 131 -496 471 -611 616 -371 468 -597 922 -734 1480 -175 710 -187
1507 -39 2570 320 2297 1119 4251 2335 5705 661 791 1252 1320 1934 1733 166
101 549 290 730 360 400 156 858 269 1240 307 66 6 156 15 200 19 119 12 610
12 770 1z"/>
<path d="M8129 12625 c-112 -35 -242 -142 -293 -243 -49 -96 -56 -147 -56
-394 l0 -228 188 2 187 3 5 140 c5 130 7 143 32 186 39 65 119 134 185 159 32
12 93 26 137 31 50 6 490 9 1146 7 999 -3 1068 -5 1120 -22 103 -34 185 -99
228 -180 24 -46 27 -65 32 -186 l5 -135 188 -3 187 -2 0 219 c0 122 -5 244
-11 273 -31 148 -135 278 -276 346 l-78 37 -1440 2 c-1221 1 -1447 0 -1486
-12z"/>
<path d="M6260 7813 c0 -507 4 -872 10 -908 21 -132 112 -250 238 -312 l57
-28 3015 -3 3015 -2 74 26 c132 48 233 172 260 318 11 59 17 1756 6 1756 -2 0
-42 -24 -87 -54 -110 -71 -184 -107 -306 -150 -212 -73 -143 -70 -1449 -73
l-1171 -4 -4 -187 c-3 -180 -4 -189 -30 -238 -104 -198 -377 -215 -504 -31
-44 63 -54 121 -54 302 l0 155 -1149 0 c-1282 0 -1283 0 -1491 66 -131 41
-219 83 -338 160 -45 30 -85 54 -87 54 -3 0 -5 -381 -5 -847z"/>
</g>
</svg>
